<?xml version="1.0" standalone="no"?>
<!DOCTYPE svg PUBLIC "-//W3C//DTD SVG 20010904//EN"
 "http://www.w3.org/TR/2001/REC-SVG-20010904/DTD/svg10.dtd">
<svg version="1.0" xmlns="http://www.w3.org/2000/svg"
 width="200.000000pt" height="200.000000pt" viewBox="0 0 200.000000 200.000000"
 preserveAspectRatio="xMidYMid meet">

<g transform="translate(0.000000,200.000000) scale(0.100000,-0.100000)"
fill="#000000" stroke="none">
<path d="M880 1564 c-265 -57 -454 -291 -454 -564 0 -221 121 -418 316 -514
175 -86 345 -85 525 4 137 68 233 183 289 350 26 77 26 244 0 320 -75 220
-228 360 -442 405 -84 18 -149 18 -234 -1z m239 -59 c268 -64 442 -333 391
-606 -35 -187 -201 -359 -391 -404 -233 -55 -478 62 -583 278 -191 389 161
831 583 732z"/>
<path d="M1089 1349 c-14 -14 -19 -28 -15 -44 6 -23 6 -23 -41 -9 -55 17 -76
17 -126 3 -81 -22 -147 -111 -147 -199 0 -111 99 -209 211 -210 22 0 21 -2 -9
-17 -44 -21 -76 -83 -69 -134 17 -130 182 -174 257 -70 63 90 6 221 -96 221
-26 0 -24 2 19 31 108 71 134 197 63 302 l-25 36 22 3 c12 2 28 15 36 29 13
24 13 29 -2 53 -21 31 -50 33 -78 5z m-67 -115 c59 -14 110 -106 94 -169 -9
-37 -63 -92 -102 -105 -116 -39 -235 93 -180 198 29 56 98 97 146 86 8 -2 27
-6 42 -10z m66 -409 c67 -47 30 -155 -53 -155 -35 0 -85 50 -85 85 0 36 50 85
87 85 16 0 38 -7 51 -15z"/>
</g>
</svg>
